<svg width="581"
  height="581"
  viewBox="0 0 581 581"
  fill="none"
  xmlns="http://www.w3.org/2000/svg">
  <path d="M559.589 555.716H20.6578C17.4838 555.716 14.8478 553.08 14.8478 549.906V524.406C14.8478 521.232 17.4838 518.596 20.6578 518.596H559.589C562.763 518.596 565.399 521.232 565.399 524.406V549.906C565.399 553.08 562.763 555.716 559.589 555.716Z"
    fill="#D4D4D8" />
  <path d="M458.506 171.395C495.793 171.395 526.02 141.168 526.02 103.881C526.02 66.5935 495.793 36.3663 458.506 36.3663C421.219 36.3663 390.991 66.5935 390.991 103.881C390.991 141.168 421.219 171.395 458.506 171.395Z"
    stroke="#C1C1C1"
    stroke-miterlimit="10"
    stroke-dasharray="11.95 11.95" />
  <path d="M150.468 109.906C135.567 115.178 120.719 121.58 110.282 131.64C99.8459 141.699 94.6277 156.171 100.868 168.275C109.26 184.467 135.728 193.882 135.889 211.419C135.997 223.954 121.58 233.584 107.055 238.102C92.5296 242.675 76.4445 244.289 63.2644 250.96C43.3598 261.02 33.9993 280.494 30.1797 299.215C26.1988 318.635 27.8127 340.746 44.8661 354.787C66.0619 372.27 101.083 370.334 131.102 366.568C171.126 361.565 210.989 355.755 250.852 349.891C338.164 337.141 425.529 324.284 512.894 311.481C522.254 310.082 531.992 308.576 539.631 304.003C554.747 294.857 556.039 275.975 547.216 262.472C538.393 248.969 522.201 239.824 506.062 231.916C489.923 224.008 472.869 216.476 460.765 204.749C448.661 193.021 442.636 175.699 451.835 162.357C459.582 151.06 476.259 145.035 483.521 133.522C493.097 118.352 482.069 99.039 464.746 89.3556C447.424 79.6723 229.334 82.1469 150.468 109.906Z"
    fill="#F7F7F7" />
  <path d="M387.064 541.729H151.114C134.329 541.729 120.773 525.859 120.773 506.277C120.773 496.486 124.162 487.61 129.649 481.208C135.136 474.806 142.722 470.825 151.114 470.825H387.064V541.729Z"
    fill="#C084FC" />
  <path d="M226.698 475.559H446.509C446.832 475.559 447.101 475.828 447.101 476.151V536.349C447.101 536.672 446.832 536.941 446.509 536.941H226.698C211.581 536.941 199.261 524.675 199.261 509.505V502.995C199.261 487.825 211.527 475.559 226.698 475.559Z"
    fill="#F2F2F2" />
  <path d="M227.289 523.384H438.87"
    stroke="#D3D3D3"
    stroke-width="2"
    stroke-miterlimit="10"
    stroke-linecap="round" />
  <path d="M227.289 513.625H438.87"
    stroke="#D3D3D3"
    stroke-width="2"
    stroke-miterlimit="10"
    stroke-linecap="round" />
  <path d="M227.289 501.866H438.87"
    stroke="#D3D3D3"
    stroke-width="2"
    stroke-miterlimit="10"
    stroke-linecap="round" />
  <path d="M227.289 491.106H438.87"
    stroke="#D3D3D3"
    stroke-width="2"
    stroke-miterlimit="10"
    stroke-linecap="round" />
  <path d="M208.461 487.287C204.318 492.129 201.736 498.853 201.736 506.277C201.736 521.125 212.011 533.121 224.707 533.121H460.227V541.729H224.277C207.492 541.729 193.936 525.859 193.936 506.277C193.936 496.486 197.325 487.61 202.812 481.208C208.299 474.806 215.885 470.825 224.277 470.825H460.227V479.433H224.707C218.359 479.433 212.603 482.391 208.461 487.287Z"
    fill="#8B5CF6" />
  <path d="M206.147 470.771H431.231C447.209 470.771 460.174 458.344 460.174 443.013C460.174 435.32 456.946 428.38 451.674 423.377C446.455 418.374 439.193 415.254 431.177 415.254H206.147V470.771Z"
    fill="#2DD4BF" />
  <path d="M361.672 419.019H149.392C149.123 419.019 148.908 419.235 148.908 419.504V466.521C148.908 466.79 149.123 467.006 149.392 467.006H361.672C374.745 467.006 385.343 456.408 385.343 443.335V442.69C385.343 429.617 374.745 419.019 361.672 419.019Z"
    fill="#F2F2F2" />
  <path d="M358.606 461.357H156.709"
    stroke="#D3D3D3"
    stroke-width="2"
    stroke-miterlimit="10"
    stroke-linecap="round" />
  <path d="M358.606 450.598H156.709"
    stroke="#D3D3D3"
    stroke-width="2"
    stroke-miterlimit="10"
    stroke-linecap="round" />
  <path d="M358.606 439.839H156.709"
    stroke="#D3D3D3"
    stroke-width="2"
    stroke-miterlimit="10"
    stroke-linecap="round" />
  <path d="M358.606 429.079H156.709"
    stroke="#D3D3D3"
    stroke-width="2"
    stroke-miterlimit="10"
    stroke-linecap="round" />
  <path d="M376.574 428.165C380.555 431.984 382.976 437.202 382.976 443.012C382.976 454.632 373.185 464.047 361.081 464.047H136.374V470.825H361.457C377.435 470.825 390.4 458.398 390.4 443.066C390.4 435.373 387.172 428.434 381.9 423.431C376.628 418.428 369.419 415.307 361.404 415.307H136.374V422.086H361.081C367.106 421.978 372.593 424.345 376.574 428.165Z"
    fill="#14B8A6" />
  <path d="M387.064 415.254H151.114C134.329 415.254 120.773 399.384 120.773 379.802C120.773 370.011 124.162 361.135 129.649 354.733C135.136 348.331 142.722 344.35 151.114 344.35H387.064V415.254Z"
    fill="#FCD34D" />
  <path d="M226.698 349.084H446.509C446.832 349.084 447.101 349.353 447.101 349.676V409.874C447.101 410.197 446.832 410.466 446.509 410.466H226.698C211.581 410.466 199.261 398.2 199.261 383.03V376.466C199.261 361.35 211.527 349.084 226.698 349.084Z"
    fill="#F2F2F2" />
  <path d="M227.289 396.909H438.87"
    stroke="#D3D3D3"
    stroke-width="2"
    stroke-miterlimit="10"
    stroke-linecap="round" />
  <path d="M227.289 386.15H438.87"
    stroke="#D3D3D3"
    stroke-width="2"
    stroke-miterlimit="10"
    stroke-linecap="round" />
  <path d="M227.289 375.391H438.87"
    stroke="#D3D3D3"
    stroke-width="2"
    stroke-miterlimit="10"
    stroke-linecap="round" />
  <path d="M227.289 364.631H438.87"
    stroke="#D3D3D3"
    stroke-width="2"
    stroke-miterlimit="10"
    stroke-linecap="round" />
  <path d="M208.461 360.812C204.318 365.653 201.736 372.378 201.736 379.802C201.736 394.65 212.011 406.646 224.707 406.646H460.227V415.254H224.277C207.492 415.254 193.936 399.384 193.936 379.802C193.936 370.011 197.325 361.135 202.812 354.733C208.299 348.331 215.885 344.35 224.277 344.35H460.227V352.957H224.707C218.359 352.904 212.603 355.916 208.461 360.812Z"
    fill="#FBBF24" />
  <path d="M214.378 333.591C230.625 337.626 290.608 344.242 320.411 347.363C327.028 348.062 332.192 348.6 334.99 348.869C336.55 349.03 337.41 349.084 337.41 349.084C337.41 349.084 345.211 348.6 354.733 348.062C363.502 347.578 383.675 347.685 390.615 347.416C393.251 347.309 394.165 343.866 391.852 342.521C387.71 340.154 370.441 333.16 361.941 332.138C356.723 331.493 350.967 326.812 346.394 324.23C342.844 322.186 338.917 325.737 335.689 326.866C334.129 327.404 332.999 330.901 331.224 331.062C330.793 331.116 330.363 331.116 329.933 331.17C327.727 331.278 325.468 331.17 323.262 330.901C322.67 330.847 322.078 330.74 321.487 330.632C314.547 329.556 308.791 327.404 308.791 327.404C287.541 316.484 240.792 287.326 204.426 295.019C204.103 295.073 203.834 295.126 203.565 295.234C203.296 295.288 202.973 295.395 202.704 295.449C166.123 304.541 192.537 328.157 214.378 333.591Z"
    fill="#C68863" />
  <path d="M214.378 333.591C230.625 337.626 290.608 344.243 320.411 347.363L325.844 316.215C324.822 316.053 323.692 315.999 322.509 315.946C310.996 315.784 299.645 313.471 289.048 309.006C264.947 298.785 230.786 288.456 202.704 295.449C166.123 304.541 192.537 328.157 214.378 333.591Z"
    fill="#082735" />
  <path d="M344.619 324.983C344.619 321.863 348.385 320.034 348.385 320.034L377.489 330.686L393.359 339.239L396.479 343.597L392.713 346.394L360.22 341.768L349.622 335.581L344.619 324.983Z"
    fill="#0B4870" />
  <path d="M329.933 331.17L334.99 348.869C336.55 349.03 337.41 349.084 337.41 349.084C337.41 349.084 345.211 348.6 354.733 348.062C363.502 347.578 383.675 347.685 390.615 347.416C393.251 347.309 394.165 343.866 391.852 342.521C387.71 340.154 370.441 333.16 361.941 332.138C356.723 331.493 350.967 326.812 346.394 324.23C342.844 322.186 338.917 325.737 335.689 326.866C334.129 327.404 332.999 330.901 331.224 331.062C330.793 331.116 330.363 331.17 329.933 331.17Z"
    fill="#0E538C" />
  <path d="M379.533 326.812C360.274 330.847 290.392 344.189 254.994 347.363C247.14 348.062 241.007 348.6 237.672 348.869C235.789 349.03 234.767 349.084 234.767 349.084C234.767 349.084 225.514 348.6 214.163 348.062C203.78 347.578 179.733 347.685 171.503 347.416C168.329 347.309 167.306 343.866 170.05 342.521C174.999 340.154 195.496 333.16 205.609 332.138C211.85 331.493 218.628 326.812 224.062 324.23C228.258 322.186 232.938 325.737 236.811 326.866C238.694 327.404 239.985 330.901 242.083 331.062C242.621 331.116 243.105 331.116 243.643 331.17C246.279 331.278 248.969 331.17 251.551 330.901C252.251 330.847 253.004 330.74 253.703 330.632C261.934 329.556 268.766 327.404 268.766 327.404C293.997 316.484 349.568 287.326 392.713 295.019C393.09 295.073 393.412 295.126 393.789 295.234C394.112 295.288 394.488 295.395 394.865 295.449C438.278 304.541 405.463 321.379 379.533 326.812Z"
    fill="#C68863" />
  <path d="M380.932 333.591C361.672 337.626 290.392 344.243 254.994 347.363L248.539 316.215C249.776 316.053 251.121 315.999 252.52 315.946C266.184 315.784 279.687 313.471 292.275 309.006C320.949 298.785 361.511 288.456 394.865 295.449C438.278 304.541 406.861 328.157 380.932 333.591Z"
    fill="#0A3E5B" />
  <path d="M226.213 324.983C226.213 321.863 221.748 320.034 221.748 320.034L187.157 330.686L168.329 339.239L164.617 343.597L169.082 346.394L207.708 341.768L220.35 335.581L226.213 324.983Z"
    fill="#0B4870" />
  <path d="M243.643 331.17L237.618 348.869C235.735 349.03 234.713 349.084 234.713 349.084C234.713 349.084 225.46 348.6 214.109 348.062C203.727 347.578 179.68 347.685 171.449 347.416C168.275 347.309 167.253 343.866 169.996 342.521C174.946 340.154 195.442 333.16 205.556 332.138C211.796 331.493 218.574 326.812 224.008 324.23C228.204 322.186 232.884 325.737 236.758 326.866C238.64 327.404 239.931 330.901 242.03 331.062C242.621 331.116 243.105 331.17 243.643 331.17Z"
    fill="#0E538C" />
  <path d="M362.587 269.197C362.587 270.595 362.587 271.994 362.533 273.393H221.533C221.479 271.994 221.479 270.595 221.479 269.197C221.479 217.014 244.773 173.278 276.083 161.981C281.193 160.152 287.165 179.142 292.652 179.142C297.87 179.142 302.335 160.044 307.231 161.712C338.917 172.579 362.587 216.584 362.587 269.197Z"
    fill="#8B5CF6" />
  <path d="M307.231 161.712L291.63 269.143L276.029 161.927C281.139 160.098 286.519 159.076 292.006 159.076C297.225 159.183 302.335 160.044 307.231 161.712Z"
    fill="white" />
  <path d="M300.452 169.566L291.845 181.939L283.184 169.566L281.247 144.766H302.443L300.452 169.566Z"
    fill="#C68863" />
  <path d="M284.636 100.33C280.333 92.96 282.377 82.9539 288.187 76.7673C294.051 70.5807 302.981 67.8909 311.481 68.3213C319.98 68.7517 328.104 71.9794 335.581 76.068C343.651 80.4793 351.29 86.1279 356.132 93.9283C360.973 101.729 362.479 112.004 358.23 120.181C356.024 124.431 352.473 127.766 349.676 131.693C346.932 135.62 344.942 140.624 346.502 145.142C348.277 150.253 353.926 153.05 356.293 157.892C358.768 163.11 356.508 169.943 351.666 173.063C346.825 176.183 340.046 175.645 335.42 172.202C330.793 168.759 328.373 162.734 328.642 156.978C328.911 151.759 331.224 146.864 333.645 142.237C336.065 137.611 338.648 132.931 339.562 127.766C340.477 122.602 339.347 116.738 335.42 113.349C329.771 108.453 321.272 110.282 313.848 110.175C302.12 109.96 290.661 103.934 283.883 94.3587"
    fill="#0B4870" />
  <path d="M262.634 121.472C262.634 103.881 275.652 92.2607 291.684 92.2607C307.715 92.2607 320.734 103.881 320.734 121.472C320.734 139.063 307.715 153.266 291.684 153.266C275.652 153.266 262.634 139.01 262.634 121.472Z"
    fill="#0B4870" />
  <path d="M269.143 128.089C269.143 113.295 279.203 101.352 291.63 101.352C304.057 101.352 314.117 113.349 314.117 128.089C314.117 142.829 304.057 157.193 291.63 157.193C279.257 157.193 269.143 142.829 269.143 128.089Z"
    fill="#E0AB8B" />
  <path d="M278.826 110.121C289.747 121.095 304.003 126.368 317.721 124.485C315.999 113.887 310.674 104.257 303.304 99.039C295.933 93.8208 286.573 93.229 278.988 97.9631C271.402 102.697 265.915 112.703 265.323 123.516C271.51 124.216 277.696 117.814 278.45 109.852"
    fill="#0B4870" />
  <path d="M317.625 136.062C319.148 132.806 318.921 129.482 317.118 128.639C315.315 127.795 312.618 129.751 311.095 133.008C309.572 136.264 309.799 139.588 311.602 140.431C313.405 141.275 316.102 139.319 317.625 136.062Z"
    fill="#E0AB8B" />
  <path d="M272.073 140.431C273.877 139.587 274.103 136.264 272.58 133.007C271.057 129.751 268.361 127.795 266.557 128.638C264.754 129.482 264.527 132.805 266.051 136.062C267.574 139.318 270.27 141.274 272.073 140.431Z"
    fill="#E0AB8B" />
  <path d="M289.209 260.589C289.209 250.637 263.656 222.071 231.593 224.653C231.593 232.454 235.036 242.836 235.036 242.836L289.209 260.589Z"
    fill="#F2F2F2" />
  <path d="M291.791 259.298C287.434 251.498 266.238 226.375 222.932 226.805C222.932 237.188 227.289 242.836 227.289 242.836L291.791 259.298Z"
    fill="#F7F7F7" />
  <path d="M285.282 257.146C274.899 246.764 246.279 233.315 217.283 234.606C217.714 259.729 219.005 316.914 219.005 316.914C219.005 316.914 273.985 321.271 285.282 329.449C285.282 318.205 285.282 257.146 285.282 257.146Z"
    fill="#DDD6FE" />
  <path d="M294.373 260.589C294.373 250.637 319.927 222.071 351.989 224.653C351.989 232.454 348.546 242.836 348.546 242.836L294.373 260.589Z"
    fill="#F2F2F2" />
  <path d="M291.791 259.298C296.149 251.498 317.344 226.375 360.65 226.805C360.65 237.188 356.293 242.836 356.293 242.836L291.791 259.298Z"
    fill="#F7F7F7" />
  <path d="M298.3 257.146C308.683 246.764 337.303 233.315 366.299 234.606C365.869 259.729 364.578 316.914 364.578 316.914C364.578 316.914 309.598 321.271 298.3 329.449C298.3 318.205 298.3 257.146 298.3 257.146Z"
    fill="#DDD6FE" />
  <path d="M298.3 257.146H285.282V329.449H298.3V257.146Z"
    fill="#C4B5FD" />
  <path d="M368.289 257.146C368.289 257.146 373.938 274.038 372.163 276.19C370.388 278.342 356.992 288.294 356.992 288.294C356.992 288.294 355.701 273.124 360.435 268.39C365.223 263.602 368.289 257.146 368.289 257.146Z"
    fill="#C68863" />
  <path d="M215.131 257.146C215.131 257.146 209.483 274.038 211.258 276.19C213.033 278.342 226.429 288.294 226.429 288.294C226.429 288.294 227.72 273.124 222.986 268.39C218.144 263.602 215.131 257.146 215.131 257.146Z"
    fill="#C68863" />
  <path d="M508.429 530.431C520.21 530.431 525.159 521.017 527.15 511.065C529.356 499.821 527.742 487.825 527.742 487.825H489.17C489.17 487.825 489.116 488.255 489.008 489.116C488.255 496.163 485.942 530.431 508.429 530.431Z"
    fill="#D8B4FE" />
  <path d="M508.429 530.431C520.21 530.431 525.159 521.017 527.15 511.065C515.584 506.707 501.059 499.66 489.008 489.116C488.255 496.163 485.942 530.431 508.429 530.431Z"
    fill="#DDD6FE" />
  <path d="M489.116 487.825C489.116 488.686 497.777 489.331 508.429 489.331C519.08 489.331 527.742 488.632 527.742 487.825C527.742 486.964 519.08 486.319 508.429 486.319C497.777 486.319 489.116 487.018 489.116 487.825Z"
    fill="#C084FC" />
  <path d="M513.432 488.255H514.508C514.508 488.255 516.606 449.952 519.511 446.402C521.394 444.088 527.58 440 535.435 436.88C539.792 435.158 544.096 433.275 547.324 431.231C556.469 425.421 565.238 406.646 565.991 403.311C566.26 402.127 566.367 401.428 566.367 400.944C566.367 400.029 565.883 399.922 565.13 399.007C564.754 398.577 563.624 398.738 562.279 399.115C558.352 400.298 555.016 403.042 552.918 406.592C550.982 409.928 547.969 414.016 544.203 415.038C537.748 416.76 538.286 417.836 535.865 424.399C533.498 430.962 527.473 432.038 519.941 439.839C512.464 447.585 513.432 488.255 513.432 488.255Z"
    fill="#14B8A6" />
  <path d="M535.488 436.88C539.846 435.158 544.15 433.275 547.377 431.231C556.523 425.421 565.291 406.646 566.045 403.311C566.314 402.127 566.421 401.428 566.421 400.944C566.421 401.159 565.991 404.118 561.203 406.108C556.254 408.153 555.285 408.152 554.64 411.273C553.994 414.393 553.456 417.728 550.874 418.374C548.292 419.019 546.678 416.114 544.634 420.848C542.589 425.582 541.621 427.196 539.738 427.842C537.855 428.487 536.403 427.519 536.026 431.177C535.704 433.437 535.542 435.535 535.488 436.88Z"
    fill="#2DD4BF" />
  <path d="M456.193 380.878C456.193 380.878 476.528 411.811 488.739 430.693C500.951 449.576 504.125 453.503 505.578 459.582C507.03 465.661 508.321 488.201 508.321 488.201H509.236C509.236 488.201 508.913 469.104 507.837 462.648C506.761 456.408 507.891 454.202 508.805 447.639C509.666 441.076 510.85 430.639 504.233 423.377C497.616 416.114 499.391 409.013 497.024 404.172C494.711 399.384 476.689 393.574 474.376 388.624C472.009 383.783 461.841 380.77 456.193 380.878Z"
    fill="#14B8A6" />
  <path d="M456.193 380.878C456.193 380.878 462.594 388.14 466.952 390.615C471.309 393.09 473.354 390.884 476.689 396.855C480.024 402.827 480.186 405.409 483.198 408.475C486.265 411.542 489.869 411.649 490.192 418.374C490.461 425.045 488.739 430.747 488.739 430.747C488.739 430.747 457.484 382.492 456.193 380.878Z"
    fill="#2DD4BF" />
  <path d="M506.761 488.255H505.847C505.847 488.255 505.578 482.069 503.103 479.056C501.543 477.119 494.765 474.914 488.148 472.278C484.489 470.825 480.831 469.265 478.088 467.49C470.341 462.594 462.971 446.724 462.325 443.927C462.11 442.959 462.003 442.367 462.003 441.937C462.003 441.183 462.379 441.076 463.025 440.323C463.348 439.946 464.262 440.054 465.446 440.43C468.781 441.452 471.578 443.712 473.354 446.778C474.968 449.576 477.55 453.072 480.724 453.933C486.211 455.386 485.727 456.3 487.771 461.841C489.761 467.382 494.872 468.297 501.22 474.86C507.568 481.369 506.761 488.255 506.761 488.255Z"
    fill="#14B8A6" />
  <path d="M488.148 472.278C484.489 470.825 480.831 469.265 478.088 467.49C470.341 462.594 462.971 446.724 462.325 443.927C462.11 442.959 462.003 442.367 462.003 441.937C462.003 442.098 462.379 444.626 466.414 446.294C470.61 448.016 471.417 448.016 471.955 450.652C472.493 453.288 472.977 456.139 475.129 456.677C477.335 457.215 478.679 454.74 480.401 458.775C482.122 462.756 482.983 464.154 484.543 464.692C486.157 465.23 487.341 464.423 487.717 467.49C487.932 469.426 488.04 471.202 488.148 472.278Z"
    fill="#2DD4BF" />
  <path d="M68.8055 531.884C78.4888 531.884 82.5773 524.137 84.1912 515.906C86.0203 506.654 84.6754 496.755 84.6754 496.755H52.9356C52.9356 496.755 52.8818 497.132 52.828 497.777C52.1824 503.641 50.2995 531.884 68.8055 531.884Z"
    fill="#D8B4FE" />
  <path d="M68.8055 531.884C78.4888 531.884 82.5773 524.137 84.1912 515.906C74.6693 512.302 62.7265 506.546 52.7742 497.831C52.1824 503.641 50.2995 531.884 68.8055 531.884Z"
    fill="#DDD6FE" />
  <path d="M52.9356 496.755C52.9356 497.454 60.0367 497.992 68.8055 497.992C77.5743 497.992 84.6754 497.454 84.6754 496.755C84.6754 496.056 77.5743 495.518 68.8055 495.518C60.0367 495.518 52.9356 496.056 52.9356 496.755Z"
    fill="#C084FC" />
  <path d="M74.8306 496.755L75.9604 496.432C75.9604 496.432 73.9699 488.524 75.9066 483.844C77.1439 480.778 84.8368 475.505 92.2068 469.642C96.2954 466.414 100.276 463.079 103.074 459.797C110.982 450.705 114.263 427.95 113.994 424.13C113.887 422.785 113.779 422.032 113.618 421.494C113.295 420.526 112.811 420.526 111.681 419.826C111.143 419.504 110.013 419.988 108.669 420.848C104.849 423.377 102.159 427.304 101.083 431.769C100.115 435.911 98.1782 441.291 94.5201 443.55C88.1721 447.424 89.0867 448.446 88.6563 456.193C88.2259 463.939 82.1469 467.006 76.6059 477.657C71.1725 488.363 74.8306 496.755 74.8306 496.755Z"
    fill="#14B8A6" />
  <path d="M92.2606 469.642C96.3492 466.414 100.33 463.079 103.127 459.797C111.036 450.705 114.317 427.95 114.048 424.13C113.941 422.785 113.833 422.032 113.672 421.494C113.725 421.763 114.21 425.045 109.744 428.649C105.118 432.415 104.096 432.737 104.419 436.234C104.741 439.785 105.226 443.497 102.643 445.003C100.115 446.509 97.4251 443.927 96.7795 449.629C96.134 455.332 95.596 457.376 93.7669 458.667C91.9917 459.958 90.1626 459.367 90.8619 463.401C91.3999 465.93 91.8841 468.189 92.2606 469.642Z"
    fill="#2DD4BF" />
  <path d="M16.6768 391.26C16.6768 391.26 36.7429 421.763 48.7932 440.43C60.8436 459.044 63.9638 462.917 65.4163 468.942C66.8688 474.967 68.1599 497.185 68.1599 497.185H69.72C69.72 497.185 70.7421 478.41 68.8593 472.278C66.9764 466.145 67.7295 463.67 68.5903 457.215C69.451 450.759 70.5807 440.43 64.0714 433.275C57.562 426.12 59.2835 419.073 56.9703 414.339C54.657 409.605 36.9043 403.903 34.591 399.007C32.3316 394.112 22.2717 391.099 16.6768 391.26Z"
    fill="#14B8A6" />
  <path d="M21.0881 391.26C21.0881 391.26 27.3823 398.415 31.686 400.836C35.9897 403.257 37.9802 401.105 41.2618 407.023C44.5433 412.887 44.7047 415.469 47.7173 418.481C50.7299 421.494 54.3343 421.655 54.6032 428.219C54.8722 434.835 53.1507 440.376 53.1507 440.376C53.1507 440.376 22.3793 392.821 21.0881 391.26Z"
    fill="#2DD4BF" />
</svg>