<svg width="215"
  height="287"
  viewBox="0 0 215 287"
  fill="none"
  xmlns="http://www.w3.org/2000/svg">
  <g clip-path="url(#clip0_49_2)">
    <path d="M0 26.9062V273.379C0 280.89 6.10286 287 13.6055 287C16.4049 287 19.1484 286.159 21.444 284.534L107.5 224.219L193.556 284.534C195.852 286.159 198.595 287 201.395 287C208.897 287 215 280.89 215 273.379V26.9062C215 12.0518 202.962 0 188.125 0H26.875C12.0378 0 0 12.0518 0 26.9062Z"
      fill="url(#paint0_linear_49_2)" />
    <path d="M61.4132 114.603L101.132 151.75C102.78 153.292 104.956 154.15 107.22 154.15C109.484 154.15 111.66 153.292 113.309 151.75L153.027 114.603C159.709 108.371 163.49 99.629 163.49 90.4908V89.2136C163.49 73.8217 152.39 60.6978 137.245 58.1655C127.222 56.492 117.023 59.773 109.858 66.9515L107.22 69.5939L104.582 66.9515C97.4169 59.773 87.218 56.492 77.195 58.1655C62.0506 60.6978 50.9506 73.8217 50.9506 89.2136V90.4908C50.9506 99.629 54.7312 108.371 61.4132 114.603Z"
      fill="white" />
  </g>
  <defs>
    <linearGradient id="paint0_linear_49_2"
      x1="0"
      y1="287"
      x2="417.613"
      y2="-263.535"
      gradientUnits="userSpaceOnUse">
      <stop stop-color="#EA3E82" />
      <stop offset="1"
        stop-color="#AB4BBA"
        stop-opacity="0" />
    </linearGradient>
    <clipPath id="clip0_49_2">
      <rect width="215"
        height="287"
        fill="white" />
    </clipPath>
  </defs>
</svg>
